# xmcd
# Track frame offsets:
# 150
# 11770
# 21692
# 33254
# 48525
# 61560
# 75643
# 89352
# 102340
# 114548
# 130327
# 145055
# 156430
#
# Disc length: 2270 seconds
# Revision: 0
# Processed by: cddbd v1.4PL0 Copyright (c) Steve Scherf et al.
# Submitted via: VisiTrax 2.9.5.180 - For more info visit www.synapsa.com
#
DISCID=ab08dc0d
DTITLE=Cosgrove Rushing - Raining in Bakersfield
DYEAR=1997
DGENRE=
TTITLE0=Raining in Bakersfield
TTITLE1=A few more years
TTITLE2=Come rock me now
TTITLE3=In your little girl's eyes
TTITLE4=Pickin' friends
TTITLE5=I'll be hitti'n the road
TTITLE6=I've been hurt by you
TTITLE7=Rodeo song
TTITLE8=I wouldn't change a thing
TTITLE9=Lonesome pine
TTITLE10=These tears on me
TTITLE11=Primer crazy
TTITLE12=A heartache ten miles wide
EXTD=
EXTT0=
EXTT1=
EXTT2=
EXTT3=
EXTT4=
EXTT5=
EXTT6=
EXTT7=
EXTT8=
EXTT9=
EXTT10=
EXTT11=
EXTT12=
PLAYORDER=
